<svg width="105" height="28" viewBox="0 0 105 28" fill="none" xmlns="http://www.w3.org/2000/svg">
<path d="M31.9361 0H29.8462V27.8057H31.9361V0Z" fill="#242424"/>
<path d="M17.9433 13.3116H7.77148V15.2226H17.9433V13.3116Z" fill="#242424"/>
<path d="M0 0V27.8057H2.08988V1.91093H23.6744V0H0Z" fill="#242424"/>
<path d="M94.5669 0.113403H77.9785V27.9191H80.0684V17.5547H80.0847V15.6438H80.0684V2.02433H94.42C99.4651 2.02433 102.91 4.32393 102.91 8.72879V8.80976C102.91 12.9393 99.3834 15.6438 94.1751 15.6438H87.6115V17.5547H94.0608C99.9059 17.5547 105 14.5426 105 8.6964V8.61543C104.967 3.23891 100.722 0.113403 94.5669 0.113403Z" fill="#242424"/>
<path d="M65.8476 15.6437L56.1329 0H54.1247L36.8179 28H38.9731L55.088 2.26721L63.4965 15.6437H65.8476Z" fill="#242424"/>
<path d="M69.048 20.7773H66.7295L71.2521 28H73.5379L69.048 20.7773Z" fill="#242424"/>
</svg>
